<?xml version="1.0" encoding="UTF-8" standalone="no"?>
<!-- Created with Inkscape (http://www.inkscape.org/) -->

<svg
   xmlns:dc="http://purl.org/dc/elements/1.1/"
   xmlns:cc="http://creativecommons.org/ns#"
   xmlns:rdf="http://www.w3.org/1999/02/22-rdf-syntax-ns#"
   xmlns:svg="http://www.w3.org/2000/svg"
   xmlns="http://www.w3.org/2000/svg"
   xmlns:sodipodi="http://sodipodi.sourceforge.net/DTD/sodipodi-0.dtd"
   xmlns:inkscape="http://www.inkscape.org/namespaces/inkscape"
   width="1089.8126"
   height="23.03125"
   id="svg2"
   version="1.1"
   inkscape:version="0.48.1 r9760"
   sodipodi:docname="squiggle.svg">
  <defs
     id="defs4">
    <inkscape:path-effect
       effect="skeletal"
       id="path-effect3083"
       is_visible="true"
       pattern="M 0,5 10,10 10,0 z"
       copytype="single_stretched"
       prop_scale="1"
       scale_y_rel="false"
       spacing="0"
       normal_offset="0"
       tang_offset="0"
       prop_units="false"
       vertical_pattern="false"
       fuse_tolerance="0" />
    <inkscape:path-effect
       effect="skeletal"
       id="path-effect3079"
       is_visible="true"
       pattern="M 0,5 10,10 10,0 z"
       copytype="single_stretched"
       prop_scale="1"
       scale_y_rel="false"
       spacing="0"
       normal_offset="0"
       tang_offset="0"
       prop_units="false"
       vertical_pattern="false"
       fuse_tolerance="0" />
    <inkscape:path-effect
       effect="skeletal"
       id="path-effect3037"
       is_visible="true"
       pattern="M 0,0 1,0"
       copytype="single_stretched"
       prop_scale="1"
       scale_y_rel="false"
       spacing="0"
       normal_offset="0"
       tang_offset="0"
       prop_units="false"
       vertical_pattern="false"
       fuse_tolerance="0" />
    <inkscape:path-effect
       effect="skeletal"
       id="path-effect3033"
       is_visible="true"
       pattern="M 0,0 1,0"
       copytype="single_stretched"
       prop_scale="1"
       scale_y_rel="false"
       spacing="0"
       normal_offset="0"
       tang_offset="0"
       prop_units="false"
       vertical_pattern="false"
       fuse_tolerance="0" />
    <inkscape:path-effect
       effect="skeletal"
       id="path-effect3029"
       is_visible="true"
       pattern="M 0,5 C 0,2.24 2.24,0 5,0 7.76,0 10,2.24 10,5 10,7.76 7.76,10 5,10 2.24,10 0,7.76 0,5 z"
       copytype="single_stretched"
       prop_scale="1"
       scale_y_rel="false"
       spacing="0"
       normal_offset="0"
       tang_offset="0"
       prop_units="false"
       vertical_pattern="false"
       fuse_tolerance="0" />
    <inkscape:path-effect
       effect="skeletal"
       id="path-effect3025"
       is_visible="true"
       pattern="M 0,5 10,10 10,0 z"
       copytype="single_stretched"
       prop_scale="1"
       scale_y_rel="false"
       spacing="0"
       normal_offset="0"
       tang_offset="0"
       prop_units="false"
       vertical_pattern="false"
       fuse_tolerance="0" />
    <inkscape:path-effect
       effect="skeletal"
       id="path-effect3021"
       is_visible="true"
       pattern="M 0,0 0,10 10,5 z"
       copytype="single_stretched"
       prop_scale="1"
       scale_y_rel="false"
       spacing="0"
       normal_offset="0"
       tang_offset="0"
       prop_units="false"
       vertical_pattern="false"
       fuse_tolerance="0" />
    <inkscape:path-effect
       effect="skeletal"
       id="path-effect3017"
       is_visible="true"
       pattern="M 0,0 0,10 10,5 z"
       copytype="single_stretched"
       prop_scale="1"
       scale_y_rel="false"
       spacing="0"
       normal_offset="0"
       tang_offset="0"
       prop_units="false"
       vertical_pattern="false"
       fuse_tolerance="0" />
    <inkscape:path-effect
       effect="skeletal"
       id="path-effect3013"
       is_visible="true"
       pattern="M 0,0 0,10 10,5 z"
       copytype="single_stretched"
       prop_scale="1"
       scale_y_rel="false"
       spacing="0"
       normal_offset="0"
       tang_offset="0"
       prop_units="false"
       vertical_pattern="false"
       fuse_tolerance="0" />
    <inkscape:path-effect
       effect="skeletal"
       id="path-effect3009"
       is_visible="true"
       pattern="M 0,0 0,10 10,5 z"
       copytype="single_stretched"
       prop_scale="1"
       scale_y_rel="false"
       spacing="0"
       normal_offset="0"
       tang_offset="0"
       prop_units="false"
       vertical_pattern="false"
       fuse_tolerance="0" />
  </defs>
  <sodipodi:namedview
     id="base"
     pagecolor="#ff2763"
     bordercolor="#666666"
     borderopacity="1.0"
     inkscape:pageopacity="0"
     inkscape:pageshadow="2"
     inkscape:zoom="0.98994949"
     inkscape:cx="552.50048"
     inkscape:cy="-20.049978"
     inkscape:document-units="px"
     inkscape:current-layer="layer1"
     showgrid="false"
     inkscape:window-width="1280"
     inkscape:window-height="742"
     inkscape:window-x="0"
     inkscape:window-y="26"
     inkscape:window-maximized="1"
     fit-margin-top="0"
     fit-margin-left="0"
     fit-margin-right="0"
     fit-margin-bottom="0" />
  <metadata
     id="metadata7">
    <rdf:RDF>
      <cc:Work
         rdf:about="">
        <dc:format>image/svg+xml</dc:format>
        <dc:type
           rdf:resource="http://purl.org/dc/dcmitype/StillImage" />
        <dc:title></dc:title>
      </cc:Work>
    </rdf:RDF>
  </metadata>
  <g
     inkscape:label="Layer 1"
     inkscape:groupmode="layer"
     id="layer1"
     transform="translate(144.93767,-528.46875)">
    <path
       style="fill:#2432cf;fill-opacity:0;stroke:#292929;stroke-width:2.37363768;stroke-miterlimit:4;stroke-opacity:1;stroke-dasharray:none"
       id="path3105"
       d="m 939.62291,546.40315 c -1.21957,-1.05602 -0.18244,-4.23226 -1.70722,-4.5714 -0.69378,-0.15431 -1.34722,1.45137 -1.46857,1.29388 -0.73924,-0.95946 -0.64271,-2.13912 -0.96404,-3.20867 -0.26031,1.37119 -0.52059,2.74237 -0.78089,4.11356 -0.37705,-0.66276 -0.39442,-2.47545 -1.13115,-1.98828 -5.99142,3.96185 8.18942,8.01452 -2.55374,-3.57047 -1.05313,-1.13566 -0.77017,2.66383 -1.15527,3.99574 -0.55121,-1.39653 -1.10241,-2.79305 -1.65363,-4.18958 -3.41128,25.53721 1.06726,2.79382 -3.15924,3.5577 -2.82213,0.51007 0.99247,5.2315 -1.65679,6.08995 -2.27709,0.73785 -1.42431,-8.03965 -4.37105,-8.06293 -1.65873,-0.0131 -1.44377,2.12067 -2.16567,3.181 -1.77555,-1.20734 -2.65207,6.01362 -4.79829,4.78438 -1.99756,-1.14409 -1.21179,-3.6125 -2.59889,-5.14559 -0.5075,-0.56092 -1.95009,-0.22536 -2.65735,-0.6639 -1.16318,-0.72123 -1.4829,-3.32878 -2.71331,-2.66617 -2.24263,1.20771 -1.8842,3.76625 -2.82629,5.64938 -4.2613,0.6569 -2.29703,-8.90714 -5.59404,-7.3815 -3.0827,1.42648 -0.75453,5.50691 -3.0946,7.523 -0.9346,0.80522 -1.46314,-2.56612 -2.90267,-2.35603 -6.65504,0.97124 0.44963,9.48299 -5.92942,-1.68072 -1.02398,0.42729 -2.30877,1.92799 -3.07199,1.28186 -1.95023,-1.65102 0.31583,-6.38201 -2.70483,-6.17241 -5.91532,0.41045 -0.64129,11.9593 -6.57854,11.76578 -2.67299,-0.0871 -1.30266,-3.74539 -2.69114,-5.36932 -0.58251,-0.68129 -1.94611,-0.79485 -2.91917,-1.19228 -4.11706,-2.29836 -3.80758,3.93399 -6.22624,3.28485 -2.30838,-0.61953 -0.97224,-3.72876 -2.87651,-4.84314 -0.95174,-0.55695 -2.01761,1.18879 -3.24693,1.2597 -7.5563,0.43584 1.42656,-3.55693 -6.65112,1.07625 -2.94795,2.50912 -4.68571,-1.86044 -6.94032,-1.29352 -1.90292,0.47848 -1.92451,3.9724 -3.75757,3.37199 -2.68551,-0.87961 -0.61077,-5.90984 -3.56166,-5.76934 -10.30344,0.49056 1.84614,14.99874 -7.78395,0.55957 -1.35713,0.85299 -2.33917,2.18018 -4.07141,2.55897 -1.31776,0.28815 -2.60663,-0.71783 -3.98079,-0.79818 -1.35724,-0.0794 -2.69792,0.30297 -4.0593,0.32804 -2.28438,0.0421 -5.93458,-0.60527 -8.16264,0.25285 -1.67427,0.64483 -2.79246,1.83971 -4.18868,2.75956 -1.26293,-1.60638 -2.52585,-3.21277 -3.78878,-4.81915 -1.41825,1.76441 -1.9072,6.45478 -4.25476,5.29322 -3.64583,-1.80394 -0.33293,-6.92181 -3.5039,-9.13218 -1.61184,-1.12356 -2.13973,3.03878 -4.10707,3.82685 -1.14703,0.45947 -2.53473,-0.55802 -3.84659,-0.64082 -1.27841,-0.0807 -2.56274,0.10362 -3.84411,0.15543 -9.00024,11.78886 0.69188,2.50636 -7.59531,0.0207 -1.78295,-0.53477 -2.0567,2.62826 -3.8956,3.05702 -1.30486,0.30425 -2.39137,-0.99181 -3.70088,-1.28582 -3.48957,-0.78348 -4.12271,-0.32609 -7.55356,0.25301 -3.28346,-0.67673 -4.72852,-0.7198 -7.47442,-2.39496 -1.38047,-0.84216 -1.91323,-2.50628 -3.65576,-2.87954 -2.86046,-0.61273 -6.77932,4.11855 -7.63487,4.54879 -1.03474,0.52035 -2.48324,0.36555 -3.72486,0.54833 -1.29833,1.79421 -1.1243,4.93598 -3.89499,5.38262 -2.22424,0.35856 -2.41558,-2.75278 -3.4369,-4.20069 -1.24009,-1.75804 -1.49047,-3.93635 -3.33659,-5.40196 -0.78336,-0.6219 -2.35555,-0.12833 -3.52487,-0.0453 -4.65404,0.33058 -3.60999,0.63611 -7.03178,3.42709 -5.10919,4.05184 -5.7795,-2.35446 -9.77629,-1.60833 -1.47805,0.27592 -1.76261,2.03493 -3.24467,2.29976 -10.72371,1.91626 5.22654,-5.65941 -6.16981,0.51361 -5.14655,0.0986 -1.89969,-7.60249 -5.74474,-7.20232 -2.91458,0.30333 -1.94111,3.95567 -3.16715,5.85728 -0.8595,1.33311 -1.6687,4.89531 -3.0719,3.81962 -6.76894,-5.18904 1.14806,-12.94335 -5.73045,-4.50182 -0.98143,0.13459 -1.96288,0.26917 -2.94433,0.40375 -0.95315,-0.98237 -1.19338,-3.10154 -2.85946,-2.9471 -1.91095,0.17713 -1.15282,3.20014 -3.03517,3.4935 -1.5093,0.23521 -1.47981,-2.13281 -2.89768,-2.56891 -3.21007,-0.98731 -4.41525,3.07102 -6.06224,5.72586 -3.0779,0.51974 -3.30626,-3.97268 -5.90582,-3.70445 -1.63812,0.16902 -2.10344,3.76628 -3.03087,2.79284 -2.41322,-2.53296 -0.19518,-6.53427 -2.83554,-8.95032 -1.20123,-1.09921 -2.43539,2.24841 -3.04311,3.57107 -1.43426,3.12149 -2.01028,6.40978 -3.01543,9.61467 -0.98006,0.92236 -1.91056,3.66177 -2.94021,2.76706 -2.43207,-2.11332 -1.30071,-5.45377 -2.97772,-7.90936 -0.46497,-0.68087 -2.43263,-0.16994 -2.98256,-0.81812 -1.60877,-1.89619 -0.81661,-4.72841 -3.03997,-6.28035 -0.99291,-0.69308 -2.1763,1.27071 -2.98163,2.07717 -1.19273,1.19439 -1.96575,2.57425 -2.94861,3.86138 -1.00402,-0.31459 -1.91515,-0.91927 -3.01206,-0.94376 -1.07124,-0.0239 -1.93958,0.73654 -3.00643,0.80935 -2.72159,0.18575 -6.68324,-1.97094 -9.23816,-1.18623 -1.28755,0.39545 -2.07805,1.33841 -3.1171,2.00762 -6.20723,2.16783 -0.87681,1.23813 -6.44678,-3.51865 -3.7978,-3.24335 -6.33814,2.84186 -9.77766,-0.53867 -1.68312,-1.65426 -2.23362,-3.76074 -3.35044,-5.6411 -4.80453,12.39248 1.12472,7.79718 -6.49562,7.85099 -1.11444,0.008 -2.17218,0.50721 -3.28349,0.44758 -1.15556,-0.062 -2.17219,-1.02044 -3.28875,-0.80024 -1.40538,0.27717 -1.91113,2.51446 -3.24021,2.08786 -2.04943,-0.65782 -2.19194,-2.78882 -3.28791,-4.18323 -11.28473,7.93848 5.0475,-2.0352 -6.50166,-0.17648 -1.91162,0.30765 -2.01563,2.39511 -3.21764,3.49434 -0.95301,0.87152 -1.75374,2.02878 -3.22053,2.39337 -1.07909,0.26823 -2.12164,-0.64034 -3.24643,-0.78588 -1.06677,-0.13804 -2.16806,-0.0367 -3.25209,-0.055 -1.98925,-0.14754 -5.25869,-0.0656 -6.53606,-1.61561 -1.66598,-2.02158 -0.22771,-5.78926 -3.31144,-6.62154 -2.35775,-0.63634 -1.84165,3.36792 -3.2638,4.84693 -0.80799,0.8403 -1.87978,1.77747 -3.28788,1.96668 -1.19169,0.16013 -2.20315,-0.72054 -3.30473,-1.08081 -1.08676,1.99565 -0.82471,4.72679 -3.26026,5.98695 -1.32488,0.68551 -2.06106,-1.82198 -3.26978,-2.60827 -0.97502,-0.63425 -1.94189,-1.4446 -3.23938,-1.62596 -1.10052,-0.15383 -2.10594,0.5704 -3.20626,0.725 -6.64538,0.93373 0.28634,-0.8734 -6.34838,1.12632 -4.14346,1.37993 -3.5594,-4.36955 -6.25076,-3.89625 -2.14576,0.37735 -0.88111,4.40116 -3.06845,4.17402 -2.45192,-0.25462 -0.62334,-4.48633 -3.05899,-4.81032 -3.48815,4.66605 -1.0014,4.53709 -5.95354,3.21504 -0.88481,-0.4264 -4.18757,-2.36646 -5.80922,-1.91858 -1.27623,0.35248 -1.65693,2.56674 -2.85569,2.09675 -1.96179,-0.76914 -0.78495,-3.68566 -2.83528,-4.32795 -1.39371,-0.4366 -1.5432,1.95647 -2.80685,2.5605 -0.77562,0.37075 -1.86669,0.0798 -2.80005,0.11964 -1.34923,1.3084 -2.40771,3.99514 -5.55979,2.43737 -1.21909,-0.60249 -1.64008,-1.79463 -2.77366,-2.4761 -0.76846,-0.46197 -1.93922,-0.45194 -2.76957,-0.85632 -1.04319,-0.50803 -1.61451,-2.20673 -2.77023,-1.84155 -1.75494,0.55452 -1.84239,2.39341 -2.76359,3.59012 -6.83617,-2.69447 2.04224,-0.0526 -5.54931,2.29686 -1.11468,0.34496 -1.71593,-1.26678 -2.79588,-1.66352 -0.84623,-0.31089 -1.86399,-0.28382 -2.80415,-0.3938 -0.93694,-0.1096 -2.12987,0.19526 -2.82425,-0.2646 -1.38389,-0.91646 -1.89565,-2.32586 -2.84347,-3.48879 -0.9552,0.15866 -2.08011,0.0587 -2.86561,0.47597 -11.70053,6.21492 12.67967,-0.18703 -5.79223,-4.67003 -2.75067,-0.66756 -0.93488,4.32287 -2.91146,5.83615 -0.79322,0.60729 -1.75552,-1.47633 -2.91359,-1.37648 -1.30454,0.11247 -1.94748,1.25303 -2.92121,1.87955 -2.48523,-1.04537 -3.06595,-1.99473 -5.87598,-0.54569 -1.20347,0.6206 -1.48301,2.35447 -2.97038,2.36418 -1.47856,0.01 -1.95746,-3.07551 -2.99165,-2.32524 -6.57122,4.76717 0.46743,10.39431 -6.08655,3.4481 -3.96359,-7.82652 0.12974,-5.70491 -6.23068,-6.17065 -1.0626,-0.0778 -2.35623,-0.9052 -3.1545,-0.40123 -1.97417,1.24632 -2.14776,5.61912 -6.2898,5.83796 -1.19633,0.0632 -2.15018,-0.75576 -3.22528,-1.13364 -1.08337,-0.7044 -1.7852,-2.19162 -3.25006,-2.11318 -1.55777,0.0834 -1.65293,2.16723 -3.16108,2.45646 -1.17959,0.22622 -2.23682,-0.72527 -3.22974,-1.23085 -1.17968,-0.60067 -1.85869,-2.37701 -3.24206,-2.06451 -6.91374,1.56182 0.82127,8.41142 -6.39491,-0.58963 -7.96256,21.47968 1.41625,3.50941 -6.30436,3.54847 -2.40574,0.0122 -2.05932,3.08733 -3.08897,4.63099 -1.11783,-3.00918 0.29016,-7.29741 -3.35348,-9.02754 -13.50383,-6.41211 6.2246,19.58462 -6.31488,1.21568 -3.13652,-1.73336 -3.17632,-2.92651 -6.30039,-0.046 -1.30696,1.20504 -0.93921,3.96808 -3.08084,4.00421 -2.11852,0.0358 -1.18731,-3.43678 -3.2043,-3.89817 -1.47511,-0.33743 -1.97176,1.7069 -3.10974,2.45383 -0.95136,0.62443 -2.08438,1.09297 -3.12656,1.63946 -1.06667,-1.2501 -1.29084,-3.20348 -3.20004,-3.7503 -1.28196,-0.36716 -1.76919,2.15269 -3.11884,1.94051 -1.69464,-0.26641 -2.30617,-3.99671 -3.17506,-2.92998 -2.51988,3.09364 0.51296,7.94635 -2.99726,10.50771 -2.09999,1.53234 -1.62433,-4.17171 -3.17322,-6.00519 -0.63324,-0.74958 -2.0681,-0.94878 -3.10215,-1.42318 -3.35704,-2.44606 -2.78892,-3.53492 -6.12832,-0.0543 -1.22109,1.2727 -0.9174,3.68299 -3.00654,4.09701 -3.62163,0.71773 -2.55641,-5.83777 -6.0961,-6.73826 -1.38509,-0.35236 -1.98648,1.54128 -2.97971,2.31192 -0.98745,1.28527 -1.97492,2.57053 -2.96237,3.8558 -1.00177,-1.03546 -1.5712,-3.84217 -3.00529,-3.10638 -14.63866,7.51075 11.71484,10.07316 -5.91121,-2.24199 -3.52012,5.29677 -1.46843,5.54495 -5.74989,1.7279 -0.94977,-0.60193 -1.9657,-2.45655 -2.84929,-1.8058 -2.00302,1.47517 0.12593,5.282 -2.64594,5.85292 -2.3163,0.47711 -0.65071,-4.02762 -2.8569,-4.71947 -1.51782,-0.47599 -1.08072,2.59908 -2.64377,2.99448 -3.48968,-2.06947 -1.64804,-1.95816 -5.41869,-0.83527 -2.63438,1.24865 -2.81327,-6.76949 -5.52146,-5.56477 -2.14057,0.95223 -0.65379,3.86947 -2.52776,5.07206 -0.8967,0.57546 -1.82782,-2.29872 -2.7091,-1.71136 -5.21496,3.47565 0.32243,11.58893 -5.3273,-1.19075 -0.83846,1.44062 -0.90342,3.26353 -2.51535,4.32186 -0.72153,0.47372 -1.75546,-0.62771 -2.63317,-0.94157 -0.88747,-0.94532 -1.55805,-3.65812 -2.66239,-2.83597 -2.21279,1.64736 0.57165,7.45046 -2.40895,6.61144 -6.30991,-1.7762 0.67375,-19.69032 -5.13658,0.0167 -0.89897,-1.83721 -0.60234,-4.25809 -2.69693,-5.51162 -1.07097,-0.64094 -1.63249,1.6202 -2.55496,2.36854 -0.80599,0.65385 -1.53628,1.42096 -2.6177,1.82777 -4.67027,1.75685 -1.95283,-2.30826 -5.50681,-3.22908 -1.22578,-0.31759 -1.86613,1.2952 -2.79919,1.9428 -7.4855,-12.239 1.28409,-1.36773 -5.92021,-0.9146 -1.96495,0.12359 -1.15018,-3.50506 -3.12073,-3.56984 -1.8869,-0.062 -1.30721,2.9551 -3.10567,3.36515 -11.42837,2.60568 5.57561,-8.51447 -6.46598,0.50634 -6.57758,-5.88795 -0.0826,-2.09604 -6.6655,-0.47342 -2.49408,0.61476 -4.09111,-2.40213 -6.79558,-1.19222 -10.10924,4.5226 2.11207,2.95573 -6.85896,3.6532 -1.16752,-0.40548 -2.53389,-0.6012 -3.50256,-1.21644 -9.14325,-5.80735 1.53805,-2.75492 -7.16048,-1.57087 -1.24692,0.16973 -2.59289,-1.18248 -3.67496,-0.71094 -8.03043,3.49946 0.49763,5.51347 -7.5823,2.51451 -8.92093,-12.91685 0.82578,-3.08943 -7.88533,-1.98334 -1.81527,0.23049 -2.56808,-3.49127 -4.02853,-2.69191 -2.85118,1.56057 -0.73578,6.10133 -4.04365,7.11013 -2.35813,0.71915 -2.09627,-3.48901 -4.10175,-4.62604 -1.07072,-0.60705 -2.74033,-0.02 -4.1105,-0.03 -3.70099,-1.01883 -5.09029,3.98322 -8.22118,3.51619 -2.04851,-0.30558 -2.26925,-2.65894 -4.10375,-3.37463 -1.19573,-0.4665 -2.76101,0.41285 -4.08532,0.1798 -8.893082,-1.56502 0.6517,-2.29725 -8.09647,-1.03278 -10.095126,5.60214 1.710629,0.24685 -7.883564,1.50276 -1.489572,0.19499 -2.335274,1.78347 -3.847031,1.71691 -1.580127,-0.0696 -2.460197,-2.68507 -3.76856,-2.05221 -10.85447,5.25035 1.916697,6.71588 -7.321502,5.008 -1.144663,-2.06818 -0.932762,-4.86873 -3.434018,-6.20455 -1.320561,-0.70526 -1.897542,2.12071 -3.446132,2.53013 -1.084575,0.28674 -2.214336,-0.47953 -3.310137,-0.74389 -1.084407,-0.26162 -2.235648,-0.42901 -3.229034,-0.8337 -1.158002,-0.47175 -1.810973,-1.82275 -3.143352,-1.76231 -1.424202,0.0646 -2.108695,1.3656 -3.163044,2.0484 -1.03929,0.6766 -2.078595,1.35321 -3.117885,2.02981 -0.977118,-1.83795 -0.588643,-6.55933 -2.931353,-5.51386 -3.400679,1.51761 -0.783246,5.96899 -3.196609,8.24856 -0.906832,0.85657 -1.76128,-1.78211 -2.961918,-2.43143 -2.780133,-1.50352 -3.365845,-0.65432 -6.008054,0.26901 -3.098622,-5.24349 -0.520497,-5.31359 -5.785936,-4.26847 -0.98178,0.19487 -2.280096,0.0754 -2.923878,0.6366 -1.494409,1.30264 -1.048199,5.4705 -3.03391,4.55667 -6.576869,-3.02669 1.352989,-14.11494 -5.574194,-1.74614 -0.927126,-0.0206 -2.14019,0.41422 -2.781376,-0.0616 -1.412878,-1.0486 -0.721969,-3.38291 -2.609641,-3.93941 -2.9644067,-0.87393 -3.3346294,6.44876 -5.738689,5.88195 -15.7292884,-3.7085 4.808823,-5.85332 -5.362746,-4.45689 -1.01929707,2.70702 0.3986713,9.47366 -3.0578911,8.12106 -4.2772414,-1.67373 -0.580573,-7.0454 -2.4094299,-10.26049 -0.3998719,-0.70296 -1.728912,1.06383 -2.7946139,1.11191 -0.9887684,0.0446 -1.8890628,-1.25506 -2.7120733,-0.86345 -5.2935998,2.51885 -0.4301488,6.86203 -5.3926998,-0.12907 -0.878817,-0.11195 -1.749445,-0.40831 -2.63645,-0.33587 -1.114519,0.091 -4.548146,1.4492 -5.301017,1.9221 -1.019917,0.64065 -1.36821,1.92364 -2.676863,2.19111 -0.975416,0.19936 -1.679886,-0.82654 -2.613155,-1.1099 -0.842936,-0.25593 -1.774493,-0.32777 -2.661739,-0.49166 -5.217226,-19.06502 0.561812,-4.63276 -5.401363,-0.43719 -1.618373,1.13866 -0.337144,-4.14764 -2.561116,-4.49932 -1.909885,-0.30201 -1.662411,2.5391 -2.848642,3.64387 -0.717154,0.6679 -1.911803,0.99804 -2.762306,1.58176 -0.998461,0.68527 -1.843718,1.47478 -2.765578,2.21216 -5.402116,-2.5696 -0.539745,0.28263 -5.051244,-6.22981 -0.58723,-0.84768 -1.364084,-2.64146 -2.53307,-2.19025 -1.930138,0.745 -1.411694,3.02283 -2.782214,4.24186 -2.272827,2.0216 -4.112347,-0.49398 -5.227065,-1.32333 1.717603,-4.78164 -2.948333,8.99853 -5.589003,7.05725 -1.885742,-1.38629 -0.344012,-4.35138 -2.527875,-5.49606 -1.267493,-0.66436 -1.527016,2.04519 -2.801772,2.70251 -2.42368,1.24975 -4.134682,-0.8086 -5.398368,-1.66495 -0.936446,1.21326 -1.411887,4.60396 -2.809337,3.63976 -7.146222,-20.71053 2.132429,-4.10013 -5.224251,-7.30255 -1.194869,-0.52014 -1.632093,-3.03903 -2.621315,-2.3341 -6.027166,4.29501 0.307251,9.49433 -5.373858,3.43603 -7.922778,-2.54086 3.207315,0.3599 -5.262758,0.70382 -1.06144,0.0431 -1.87703,-1.89705 -2.58039,-1.33102 -1.82583,1.46933 -0.4523,6.72136 -2.67757,5.56233 -6.07191,-3.16254 1.04667,-16.4723 -5.04932,-1.97864 -0.83806,0.51185 -1.80317,0.93455 -2.51419,1.53555 -0.9737,0.82302 -1.68073,3.60339 -2.49181,2.69583 -2.07032,-2.31657 -0.83423,-5.52956 -2.30742,-8.0659 -0.65966,-1.13571 -3.79349,0.4768 -4.73773,1.50625 -1.01891,1.11085 -1.56058,2.40864 -2.34087,3.61295 -6.36832,-0.3437 2.55453,0.49499 -4.45599,-1.74177 -0.67703,-0.21601 -1.57782,0.49451 -2.20623,0.21408 -1.06422,-0.4749 -0.99868,-1.90093 -2.19375,-2.17755 -1.92724,-0.4461 -3.15664,2.71783 -4.45958,4.9217 -6.56267,0.0333 -6.629,-6.55579 -0.0663,-6.5891 l 0,0 c 0.75894,-0.25112 1.51789,-0.50224 2.27685,-0.75336 0.75099,0.0924 1.52653,0.44107 2.25295,0.27728 0.91857,-0.20713 1.84014,-1.91225 2.24688,-1.29193 1.6042,2.44663 -1.22159,6.67074 2.12182,7.95479 2.67126,1.02592 -0.61077,-5.61673 2.28738,-6.26141 2.45976,-0.54716 1.46544,3.50908 2.19816,5.26362 0.77322,-0.62169 1.56941,-1.22936 2.31966,-1.86508 0.81171,-0.68781 1.1009,-2.11253 2.36476,-2.1043 1.27231,0.008 1.08198,2.0681 2.35085,2.13502 1.19852,0.0632 1.25473,-1.75707 2.44357,-1.88218 1.81234,-0.19073 2.47623,2.79895 4.92441,1.73332 1.31618,-0.29931 3.60778,-0.9841 5.09496,-0.6859 0.96948,0.1944 1.57937,1.28935 2.56346,1.13644 1.23825,-0.1924 1.3781,-2.04484 2.63777,-1.9446 6.551442,0.52132 -1.41916,5.67107 5.245865,0.13744 4.646867,-0.0438 1.17151,-0.51301 5.241833,2.39207 0.759128,0.54181 1.93733,1.90166 2.638508,1.32183 0.350076,-0.2895 2.49402,-7.55002 5.611208,-8.26616 0.999201,-0.22956 1.794873,0.77455 2.692309,1.16182 0.885916,0.87686 1.993179,1.66007 2.657747,2.63057 1.096026,1.60056 0.972224,3.64897 2.578101,5.01553 0.602278,0.51252 2.260791,0.081 2.732396,-0.49646 1.586541,-1.9425 1.507519,-4.39909 2.909888,-6.41174 0.540944,-0.77636 1.962511,-2.37408 2.751542,-1.71346 1.919738,1.60732 1.639519,4.05085 2.459279,6.07627 0.919078,-1.04401 1.398679,-2.36689 2.757233,-3.13201 2.594806,-1.46138 4.760593,2.34416 5.144898,2.74914 2.200589,-1.17764 0.17978,-6.03954 2.834104,-5.51368 3.597493,0.71272 -0.946653,7.76499 5.016287,7.1132 0.881181,0.30673 1.743275,1.19758 2.643542,0.92019 2.789507,-0.8595 3.039495,-5.10388 5.561618,-3.77534 1.656599,0.87262 0.799391,4.72675 2.583879,3.99214 6.396113,-2.63306 -0.300298,-12.63502 5.462135,-1.22921 0.889597,0.10402 1.779658,0.20607 2.668791,0.31207 0.877751,0.10465 1.773809,0.4878 2.631841,0.31986 1.050905,-0.20569 1.566104,-1.37492 2.655847,-1.3548 1.096454,0.0202 1.567205,1.75315 2.578334,1.4514 10.7822369,-3.2177 -2.947501,-3.28433 5.35389,-2.91148 0.855551,1.27128 0.588986,3.69671 2.566652,3.81384 1.884334,0.11159 1.626497,-2.453 2.8188771,-3.49489 3.3749916,-2.94901 1.8852193,-0.69604 5.5200658,-0.70057 5.33663744,-0.007 0.6111395,-3.14559 5.4615171,2.27925 0.9400308,-0.41139 1.7895346,-1.51582 2.8200936,-1.23417 1.4539027,0.39734 1.3547444,3.33946 2.6553383,2.73059 2.2580141,-1.0571 0.2635886,-5.27916 2.9658032,-5.36215 2.5794739,-0.0792 1.2607499,3.60422 2.5489909,5.19277 0.544332,0.67123 1.6379,1.42244 2.714654,1.29791 1.302486,-0.15064 1.907329,-1.29517 2.860995,-1.94275 8.910312,1.90097 -7.448652,-0.8745 5.813934,-4.71052 1.791994,-0.51831 0.809659,3.45055 2.726478,3.63843 1.741371,0.17069 1.429557,-3.62982 3.005316,-3.07662 13.714469,4.81471 -3.894951,5.7082 5.755533,4.83728 9.501455,0.80988 -7.961144,0.0186 6.114638,-5.77678 1.6664,-0.6861 1.594156,2.554 2.940846,3.53189 0.746639,0.54217 1.956587,0.64711 3.006373,0.78665 4.275873,0.56837 3.417988,-0.34509 6.184866,-3.05194 2.683943,3.14513 2.489381,3.5829 6.187543,5.75907 0.999766,0.58832 1.97442,1.8157 3.220442,1.55619 1.704445,-0.355 2.136768,-2.02325 3.372281,-2.92928 2.614305,-1.91713 3.820958,-2.22386 6.95186,-3.52051 5.539812,1.94838 2.834036,0.47265 7.236031,5.14002 1.233852,0.44225 2.769638,-0.54416 3.775504,-1.21717 1.620976,-1.08456 1.677598,-4.24931 3.843608,-3.88066 10.368214,1.76464 -1.957997,10.30815 7.888706,1.75283 1.342563,-0.10435 2.70924,-0.52101 4.027675,-0.31305 3.057174,0.48222 4.526904,2.81656 8.156114,2.08509 1.63061,-0.32865 2.58115,-1.59779 4.09202,-2.14331 4.52547,-1.63399 4.20263,-0.77691 8.23101,1.00559 1.62352,-0.60068 5.92734,-2.54771 8.19358,-2.07533 1.65169,0.34427 2.8188,1.4173 4.0704,2.25632 1.45901,0.97805 2.28062,3.87121 4.03079,3.17435 2.84285,-1.13195 1.62738,-4.72615 3.94784,-6.35122 0.97038,-0.67959 2.60739,0.56496 3.91108,0.84744 7.04228,13.29869 0.78833,6.13871 7.58788,-0.64277 0.26533,-0.26463 7.10258,1.34606 7.28221,1.32027 6.86001,-0.98459 0.27705,-4.40911 7.04561,1.06281 1.1506,-0.10935 2.29393,-0.38717 3.45179,-0.32804 0.67807,0.0346 5.95705,1.41752 6.8376,0.94415 1.70946,-0.91897 1.22317,-3.71894 3.35259,-3.89764 1.91452,-0.16066 2.25218,2.22187 3.37828,3.3328 1.09984,-0.3196 2.19968,-0.6392 3.29954,-0.9588 1.10029,1.26957 1.56837,2.96661 3.30088,3.80872 0.91547,0.44499 2.47515,-0.0526 3.20062,-0.64855 1.54341,-1.26792 0.74637,-4.69866 3.09367,-4.52223 1.23512,0.0928 3.21717,7.22987 6.17983,8.06816 1.08394,0.30671 1.92945,-0.93204 2.89416,-1.39807 0.93537,-0.56468 1.58716,-1.58941 2.80609,-1.69405 3.99457,-0.34292 1.67128,3.74985 5.4492,-0.27952 1.16611,-1.24374 0.46815,-4.12291 2.57223,-4.09339 6.27434,0.088 -1.23864,15.23455 5.11713,-2.68235 0.88314,1.31247 1.76628,2.62494 2.64943,3.93742 0.85554,0.0355 1.93175,-0.30211 2.56663,0.10658 1.30623,0.84087 0.89014,3.16029 2.64877,3.25074 1.62934,0.0838 1.1089,-2.39823 2.51799,-2.98502 1.52051,-0.63318 3.47522,2.59311 5.25048,0.44809 6.89419,8.43623 -1.6143,0.0863 5.27329,-0.86382 1.8425,-0.25416 1.04757,4.02975 2.76016,3.48444 2.34329,-0.74612 0.32325,-4.22997 2.52584,-5.16755 2.02463,-0.86182 1.81434,5.1126 5.45333,3.20783 10.85289,3.40283 -6.17746,-1.25812 5.37834,-0.64049 1.24174,0.0664 2.0453,2.50272 2.76667,1.78212 1.99902,-1.99679 -0.76571,-6.50585 2.57533,-7.11822 2.93341,-0.53766 1.21359,4.33115 2.91124,6.11259 0.52459,0.55047 1.86914,-0.0771 2.8037,-0.11558 0.92266,-2.34123 0.007,-8.46243 2.76799,-7.02369 3.87882,2.02173 0.96164,6.92901 2.99238,10.02613 0.45679,0.69668 2.34556,-0.34796 2.9291,-0.99519 1.48813,-1.65048 1.02601,-4.0785 2.92671,-5.49954 0.7694,-0.57524 1.99316,0.71746 2.98972,1.07619 0.98874,-1.04119 1.97748,-2.08238 2.96621,-3.12357 4.63696,5.77563 0.83952,2.08045 6.04961,5.54428 1.07421,0.71417 1.60362,2.44998 3.05201,2.2649 1.71845,-0.21959 1.76308,-2.17733 3.0165,-3.04035 3.2463,-2.2352 3.4202,-0.89708 6.13737,0.82157 6.3433,1.93435 0.11688,0.90021 6.15612,-3.03572 1.64038,-1.0691 5.40541,0.75981 6.27509,1.28616 1.20379,0.72855 1.7525,2.01572 3.17857,2.50165 0.95656,0.32594 2.0969,-0.23119 3.14534,-0.34678 10.34703,0.26401 -9.30737,0.49127 6.17504,-8.07402 1.93626,-1.07119 1.68567,3.34046 3.21496,4.70366 0.71705,0.63918 2.23399,0.5004 3.16359,0.9822 5.00552,2.59422 1.56863,3.81421 6.29238,-0.55863 1.04236,-0.65423 1.73846,-1.90121 3.12706,-1.9627 1.32687,-0.0587 2.00875,1.27516 3.20825,1.68219 0.97928,0.33231 2.12005,0.33148 3.18321,0.4867 1.06154,0.15498 2.22359,0.79126 3.19056,0.44385 1.46991,-0.52809 1.49048,-2.60669 3.1308,-2.71491 1.5188,-0.10019 2.15955,1.52978 3.2393,2.29467 7.99508,2.19839 -2.42388,0.19018 6.32777,-2.58027 1.16433,-0.36858 1.99252,1.23591 3.22969,1.45424 10.26427,1.81138 -8.18823,-6.92526 6.50927,4.83242 0.70989,0.56789 2.13817,0.0409 3.20723,0.0614 4.63015,-2.10669 1.51329,-0.98894 6.35362,-2.1021 1.06422,-0.24474 2.06842,-0.62909 3.16042,-0.80139 1.02309,-0.16142 2.09445,-0.2938 3.13256,-0.19151 1.09505,0.1079 2.37625,1.39069 3.1157,0.8072 1.91943,-1.51458 2.06056,-3.8031 3.09083,-5.70465 1.02034,2.11173 0.72934,4.83722 3.06099,6.33519 1.12774,0.72453 1.90979,-1.69138 3.02818,-2.42318 0.9003,-0.58908 1.78486,-1.66818 2.98995,-1.51462 1.43381,0.1827 1.64417,1.84981 2.97248,2.27436 2.81312,0.89913 4.93477,-2.14687 5.87411,-2.98026 0.97353,-0.92626 1.33296,-2.52339 2.92058,-2.77879 1.2678,-0.20396 2.00759,1.1785 2.91373,1.84022 1.04182,0.76078 1.97666,1.59269 2.91679,2.41752 1.00104,0.87824 1.39589,2.33054 2.90461,2.68981 1.08268,0.25782 1.88003,-1.69517 2.88564,-1.31099 1.67766,0.64092 1.91264,2.33961 2.86895,3.50942 0.94578,-1.30404 1.075,-3.14664 2.83732,-3.91211 0.99186,-0.43082 1.66938,1.36307 2.8253,1.45252 1.04301,0.0807 1.75743,-1.08134 2.80269,-1.01699 1.12581,0.0693 1.6774,1.47826 2.79543,1.36163 6.07387,-0.63362 -0.59963,-5.13622 5.55262,0.67541 0.92072,-1.58054 0.92178,-3.63788 2.76216,-4.74161 2.32309,-1.39324 3.12348,3.85925 5.54109,3.60752 1.57348,-0.16383 1.43439,-3.37779 2.76553,-2.76004 6.11719,2.83883 -0.47085,10.39386 5.56496,1.00211 0.93434,0.51776 1.86867,1.03552 2.80301,1.55328 0.9381,0.40244 1.9295,0.74803 2.81429,1.20731 1.00317,0.52073 1.85133,2.26613 2.83034,1.72273 1.95249,-1.08374 1.89988,-3.25035 2.84982,-4.87552 0.96194,-0.0472 2.03092,0.17492 2.88581,-0.14171 1.19948,-0.44424 1.94227,-1.3374 2.91339,-2.00611 0.98278,-1.13655 1.17554,-2.96864 2.94834,-3.40967 1.27487,-0.31716 2.35574,1.08808 3.00856,1.92773 1.42225,1.82931 0.80515,4.53796 3.06148,5.87955 1.5828,0.94113 5.58896,-7.53309 9.30603,-3.99661 2.14938,0.59081 3.98873,1.25467 6.35487,1.29353 1.07911,0.0177 2.67652,-0.98518 3.2071,-0.31783 2.0244,2.54628 -0.77762,7.905 3.26602,8.45967 3.64558,0.50007 0.90366,-5.51309 3.22772,-7.56891 0.86725,-0.76716 2.19553,1.20034 3.29328,1.80052 5.81115,-1.56932 2.81953,-0.12713 6.567,-6.13042 3.026,-1.35758 2.95183,4.5415 6.59363,5.49214 1.21292,0.31662 2.1141,-1.06564 3.26029,-1.48943 1.03401,-0.3823 2.16662,-0.61172 3.24993,-0.91758 1.08782,0.6653 2.38414,1.19007 3.26347,1.99589 1.32718,1.21622 1.14836,3.67091 3.26833,3.98983 1.73688,0.2613 1.76148,-2.29163 3.21615,-3.01431 0.88905,-0.44169 2.15941,-0.22477 3.24371,-0.19495 6.14302,0.16893 2.0506,2.27111 6.46206,-4.68768 1.07983,-0.34882 2.49217,-1.70061 3.23949,-1.04646 2.12595,1.86092 1.44399,4.79948 3.32224,6.79019 0.6117,0.64831 2.37693,0.65223 3.28383,0.2114 1.58894,-0.77234 1.52258,-2.79018 3.25363,-3.38908 1.97286,-0.68256 4.5774,3.62337 6.58357,0.05 1.11531,1.66654 1.75315,3.54166 3.34591,4.99961 0.7406,0.67791 2.43031,1.67802 3.29258,1.07697 2.02305,-1.41015 1.82528,-3.83357 3.19206,-5.59704 2.69592,-3.47841 3.13927,-3.32589 6.43876,-0.76059 1.23005,0.95635 2.15183,2.09166 3.22775,3.13749 1.01891,-2.09729 0.69652,-4.8379 3.05679,-6.29185 1.18113,-0.7276 2.49972,1.46119 3.14155,2.47359 1.50841,2.37933 -0.29445,6.64154 3.17839,7.49537 0.95243,0.23416 2.19893,-8.00976 5.94506,-8.32521 1.31646,-0.11085 2.01737,1.22144 3.02604,1.83215 0.99668,-0.1295 1.98206,-0.46152 2.99008,-0.38852 2.86883,0.20777 2.97299,1.79029 5.9904,0.41606 1.23666,-0.56321 1.73179,-1.75398 2.97688,-2.30774 4.46839,-1.9873 4.6494,2.2273 5.96789,4.27617 5.09323,-6.29878 0.39988,-3.35614 5.96973,-2.44802 0.97912,0.15964 2.25047,-0.77323 2.98643,-0.28776 1.60368,1.05784 0.94036,3.50415 2.91238,4.17881 9.38221,3.20981 -4.63815,-12.05853 5.9434,1.62475 1.0187,-1.26946 2.03741,-2.53892 3.05613,-3.80838 0.95767,1.33686 1.10296,4.82928 2.87303,4.01059 2.80532,-1.29752 0.60691,-5.20421 3.11396,-6.77971 1.28036,-0.80461 1.41642,2.38258 2.87502,3.01607 0.86062,0.37377 1.96522,-0.32477 2.94783,-0.48715 0.96532,0.44427 1.93063,0.88853 2.89595,1.3328 9.05685,-3.67621 -4.5281,0.90985 5.81324,1.76175 1.53155,0.12617 2.08042,-1.61879 3.03036,-2.48098 6.4023,-5.81085 5.31704,-9.15624 8.88731,2.04491 8.98684,-10.65343 -2.74308,0.86058 6.12763,0.54336 2.40738,-0.0861 0.95168,-4.29366 3.33367,-4.55582 2.05212,-0.22586 1.05097,3.48387 3.06187,3.85193 2.89599,0.53006 3.04187,-5.13139 6.79638,-4.15841 0.17707,0.24309 3.39728,6.43929 6.62992,6.01328 1.66224,-0.21906 1.9831,-2.25123 3.63319,-2.51251 1.30567,-0.20673 2.23111,1.6603 3.50988,1.38147 0.76874,-0.16762 7.31311,-6.15205 7.55012,-6.36377 1.16174,1.72008 1.53452,3.84839 3.48521,5.16025 3.12975,2.10479 10.59412,-5.70829 11.41718,-5.21221 2.64265,1.5928 1.14555,5.16063 3.53497,6.9437 0.99707,0.74405 2.55447,-0.96428 3.83171,-1.44642 9.03329,-9.07887 -0.87371,-1.82257 7.57788,-0.85513 1.63802,0.1875 2.38965,-2.78881 3.85462,-2.2358 2.32951,0.87935 1.46142,3.87137 3.53828,5.02653 2.63808,1.46732 8.07925,-4.7662 7.79747,-4.50579 8.63436,18.85964 -1.99484,1.117 7.71756,-0.0531 3.31353,-0.3992 0.56382,7.73161 3.58747,6.68983 30.19331,-10.40292 -15.3358,-13.54748 8.0783,-2.62626 1.70394,0.79477 2.78739,-2.11286 4.18107,-3.1693 1.29922,1.07347 1.90546,3.27235 3.89764,3.22039 2.14142,-0.0558 2.29762,-2.78527 4.23688,-3.43253 1.25184,-0.41782 2.67514,0.5153 4.04125,0.66958 1.33197,0.15043 2.9115,-0.29107 4.03174,0.24215 1.74318,0.82972 2.07413,2.75901 3.87666,3.52212 1.1436,0.48414 2.65673,-0.12921 3.98511,-0.19381 1.30842,-0.0425 2.61549,-0.13217 3.92527,-0.12758 1.28462,0.005 2.69301,0.55447 3.84774,0.15481 1.65741,-0.57363 2.14694,-3.31965 3.85079,-2.81931 2.40779,0.70705 2.12446,3.38917 3.47587,4.97078 5.00683,5.85969 3.63037,2.71799 7.11064,-3.57 1.07132,0.9757 1.55031,2.55911 3.21398,2.92712 1.24898,0.27627 2.3685,-0.84678 3.32446,-1.48081 1.28921,-0.85506 1.83286,-3.59983 3.32031,-2.92628 8.98828,4.0701 -2.07358,7.21014 5.90904,5.02606 1.04676,-0.2864 2.04056,-0.66218 3.06082,-0.99327 1.19344,-3.78523 -0.60698,-8.86401 3.5803,-11.35569 2.84683,-1.69403 1.10707,5.27348 2.56446,7.6992 0.46222,0.76933 2.10064,0.81471 2.91417,1.41965 1.13766,0.84597 1.20585,2.93976 2.85011,2.86669 7.79808,-0.34653 -1.27932,-7.72998 6.04979,-0.15026 8.99896,-9.46055 -1.53801,-0.43433 6.13119,-3.174 1.30955,-0.46781 1.71205,-2.75924 3.01055,-2.27614 2.02697,0.75413 1.44306,3.14576 2.81787,4.44459 0.63384,0.59882 1.91834,0.62405 2.87752,0.93608 0.93698,1.29539 1.87393,2.59079 2.8109,3.88619 0.94715,-0.69463 2.21729,-1.22462 2.84145,-2.08387 1.27718,-1.75826 -0.0397,-5.68858 2.74442,-5.60595 2.84616,0.0845 0.77251,4.25036 2.65809,5.76631 0.12128,0.0975 4.66395,-4.18366 7.45313,0.0921 5.68576,-11.87611 -0.88596,-2.1209 4.35665,-2.26873 1.28483,-0.0362 0.66729,-2.18065 1.92406,-2.37368 2.76125,-0.42411 2.19008,6.80026 5.31405,2.54993 0.42569,-1.36156 0.16516,-2.93491 1.27712,-4.08468 0.43709,-0.45197 1.10542,0.80067 1.41229,1.30377 0.64592,1.05893 0.72714,2.26625 1.40502,3.31507 0.20725,0.32066 0.78514,0.43298 1.16466,0.66074 0.36154,0.21698 0.8418,0.97204 1.05767,0.67292 0.70275,-0.97376 0.52708,-2.15603 0.79064,-3.23404 3.32555,2.31387 -4.46883,-2.79323 1.60275,-3.53584 1.84348,-0.22548 0.26554,2.66108 0.69675,3.95338 0.0485,0.14528 0.56449,0.16487 0.63,0.023 0.38827,-0.84067 0.2671,-1.76497 0.57079,-2.623 0.0633,-0.17885 0.33761,-0.28032 0.50642,-0.42048 5.4059,0 5.4059,5.42769 0,5.42769 z"
       inkscape:connector-curvature="0" />
  </g>
</svg>
